<svg width="14" height="15" viewBox="0 0 14 15" fill="none" xmlns="http://www.w3.org/2000/svg">
<path d="M7 5.66636C6.67035 5.66649 6.34814 5.7688 6.0741 5.96037C5.80007 6.15193 5.58652 6.42414 5.46045 6.74257C5.33439 7.06101 5.30147 7.41138 5.36585 7.74938C5.43024 8.08737 5.58905 8.39782 5.82219 8.64147C6.05533 8.88512 6.35234 9.05102 6.67566 9.11821C6.99899 9.1854 7.33411 9.15085 7.63865 9.01893C7.9432 8.88702 8.20349 8.66366 8.38662 8.3771C8.56976 8.09053 8.6675 7.75364 8.6675 7.409C8.66717 6.94682 8.49136 6.50367 8.1787 6.17692C7.86603 5.85017 7.44209 5.66653 7 5.66636ZM10.8972 4.32687C10.8123 4.10205 10.6842 3.89785 10.5207 3.72695C10.3572 3.55604 10.1619 3.42208 9.94687 3.33336C9.29062 3.06253 7.72813 3.12329 7 3.12329C6.27187 3.12329 4.71094 3.06024 4.05281 3.33336C3.83776 3.42208 3.64244 3.55604 3.47897 3.72695C3.3155 3.89785 3.18736 4.10205 3.1025 4.32687C2.84375 5.01295 2.90156 6.64811 2.90156 7.40868C2.90156 8.16924 2.84375 9.80244 3.10375 10.4908C3.18861 10.7156 3.31675 10.9198 3.48022 11.0907C3.64369 11.2616 3.83901 11.3956 4.05406 11.4843C4.71031 11.7552 6.27281 11.6944 7.00125 11.6944C7.72969 11.6944 9.29 11.7574 9.94812 11.4843C10.1632 11.3956 10.3585 11.2616 10.522 11.0907C10.6854 10.9198 10.8136 10.7156 10.8984 10.4908C11.1594 9.80473 11.0994 8.16957 11.0994 7.409C11.0994 6.64843 11.1594 5.01556 10.8984 4.3272L10.8972 4.32687ZM7 10.088C6.49319 10.088 5.99775 9.93086 5.57635 9.63649C5.15495 9.34212 4.82651 8.92372 4.63256 8.4342C4.43861 7.94468 4.38786 7.40603 4.48674 6.88636C4.58561 6.36669 4.82967 5.88934 5.18804 5.51468C5.54641 5.14002 6.003 4.88487 6.50008 4.7815C6.99716 4.67813 7.51239 4.73118 7.98063 4.93395C8.44886 5.13672 8.84907 5.48009 9.13064 5.92064C9.41221 6.3612 9.5625 6.87915 9.5625 7.409C9.56291 7.76093 9.49691 8.10949 9.36828 8.43471C9.23965 8.75993 9.05091 9.05543 8.81288 9.30429C8.57485 9.55314 8.2922 9.75045 7.98111 9.88493C7.67003 10.0194 7.33663 10.0884 7 10.088ZM9.66813 5.24295C9.54981 5.24302 9.43414 5.2064 9.33574 5.13773C9.23734 5.06906 9.16063 4.97142 9.11531 4.85716C9.06999 4.74291 9.0581 4.61717 9.08114 4.49585C9.10419 4.37453 9.16113 4.26308 9.24476 4.17559C9.3284 4.08811 9.43498 4.02852 9.55101 4.00437C9.66704 3.98021 9.78732 3.99258 9.89663 4.03989C10.0059 4.08721 10.0994 4.16736 10.1651 4.2702C10.2309 4.37304 10.2659 4.49395 10.2659 4.61764C10.2663 4.69978 10.2511 4.78117 10.2213 4.85716C10.1914 4.93315 10.1475 5.00223 10.0921 5.06045C10.0367 5.11867 9.97081 5.16487 9.89827 5.19642C9.82573 5.22796 9.74794 5.24422 9.66938 5.24426L9.66813 5.24295ZM12.5 0.0908203H1.5C1.10218 0.0908203 0.720644 0.256039 0.43934 0.55013C0.158035 0.844221 0 1.24309 0 1.659L0 13.159C0 13.5749 0.158035 13.9738 0.43934 14.2679C0.720644 14.562 1.10218 14.7272 1.5 14.7272H12.5C12.8978 14.7272 13.2794 14.562 13.5607 14.2679C13.842 13.9738 14 13.5749 14 13.159V1.659C14 1.24309 13.842 0.844221 13.5607 0.55013C13.2794 0.256039 12.8978 0.0908203 12.5 0.0908203ZM11.965 9.56525C11.9247 10.4026 11.7419 11.1445 11.1572 11.7542C10.5725 12.3638 9.86344 12.5588 9.06344 12.5987C8.23812 12.6474 5.76375 12.6474 4.93844 12.5987C4.1375 12.5566 3.43031 12.3651 2.84469 11.7542C2.25906 11.1432 2.075 10.401 2.03688 9.56525C1.99031 8.7021 1.99031 6.11493 2.03688 5.25275C2.07719 4.41541 2.25781 3.67346 2.84469 3.06383C3.43156 2.4542 4.14062 2.26145 4.93844 2.22159C5.76375 2.17291 8.23812 2.17291 9.06344 2.22159C9.86438 2.26373 10.5737 2.45518 11.1572 3.06612C11.7406 3.67706 11.9269 4.41933 11.965 5.25667C12.0116 6.11656 12.0116 8.70145 11.965 9.56525Z" fill="#383838"/>
</svg>
