<svg width="14" height="15" viewBox="0 0 14 15" fill="none" xmlns="http://www.w3.org/2000/svg">
<path d="M3.13375 14.7282H0.23125V4.95621H3.13375V14.7282ZM1.68094 3.62323C0.752813 3.62323 0 2.81951 0 1.84918C6.64312e-09 1.38309 0.177098 0.936096 0.492335 0.606522C0.807572 0.276949 1.23513 0.0917969 1.68094 0.0917969C2.12675 0.0917969 2.5543 0.276949 2.86954 0.606522C3.18478 0.936096 3.36188 1.38309 3.36188 1.84918C3.36188 2.81951 2.60875 3.62323 1.68094 3.62323ZM13.9969 14.7282H11.1006V9.97124C11.1006 8.83755 11.0787 7.38368 9.59156 7.38368C8.0825 7.38368 7.85125 8.61538 7.85125 9.88956V14.7282H4.95188V4.95621H7.73562V6.28919H7.77625C8.16375 5.52142 9.11031 4.71118 10.5225 4.71118C13.46 4.71118 14 6.73352 14 9.36029V14.7282H13.9969Z" fill="#383838"/>
</svg>
