<svg width="14" height="13" viewBox="0 0 14 13" fill="none" xmlns="http://www.w3.org/2000/svg">
<path d="M12.5609 3.75894C12.5698 3.88895 12.5698 4.01899 12.5698 4.149C12.5698 8.11454 9.68275 12.6838 4.40609 12.6838C2.78045 12.6838 1.27031 12.1915 0 11.3372C0.230973 11.365 0.453031 11.3743 0.692891 11.3743C2.03424 11.3743 3.26903 10.9007 4.25507 10.0927C2.99365 10.0648 1.93654 9.20115 1.57232 8.0124C1.75 8.04024 1.92765 8.05882 2.11422 8.05882C2.37182 8.05882 2.62946 8.02166 2.86929 7.95668C1.55457 7.67805 0.568504 6.47075 0.568504 5.01269V4.97555C0.950469 5.19844 1.39467 5.33775 1.86545 5.3563C1.0926 4.81764 0.586277 3.89824 0.586277 2.85808C0.586277 2.30087 0.728383 1.79009 0.977129 1.34431C2.38957 3.16456 4.51268 4.35328 6.89336 4.48332C6.84895 4.26043 6.82229 4.02828 6.82229 3.7961C6.82229 2.14299 8.10149 0.796387 9.69158 0.796387C10.5177 0.796387 11.2639 1.15858 11.788 1.74366C12.4365 1.61365 13.0583 1.36289 13.6091 1.01928C13.3959 1.71582 12.9428 2.3009 12.3477 2.67236C12.9251 2.60738 13.4847 2.44018 13.9999 2.20802C13.6091 2.80237 13.1205 3.33171 12.5609 3.75894Z" fill="#383838"/>
</svg>
