<svg width="194" height="47" viewBox="0 0 194 47" fill="none" xmlns="http://www.w3.org/2000/svg">
<path d="M5.27415 36.66H21.8971V30.127H5.27415V36.66ZM5.27415 10.293H21.8971V3.76H5.27415V10.293ZM5.27415 22.56H20.9553V16.168H5.27415V22.56ZM0 3.76V36.66H7.62868V3.76H0Z" fill="black"/>
<path d="M49.8472 15.04H42.5482L35.6259 32.336L39.2989 32.383L32.2824 15.04H24.4654L33.8364 34.921L28.5623 47H35.7201L49.8472 15.04Z" fill="black"/>
<path d="M62.554 37.13C65.3166 37.13 67.6554 36.5973 69.5705 35.532C71.5169 34.4667 73.0552 32.8687 74.1853 30.738L67.8281 29.187C67.2944 30.127 66.5724 30.832 65.6619 31.302C64.7829 31.772 63.7155 32.007 62.4598 32.007C61.361 32.007 60.4349 31.772 59.6814 31.302C58.928 30.8007 58.3629 30.08 57.9862 29.14C57.6095 28.2 57.4211 27.072 57.4211 25.756C57.4525 24.3147 57.6408 23.124 57.9862 22.184C58.3629 21.2127 58.9123 20.492 59.6343 20.022C60.3564 19.552 61.2511 19.317 62.3185 19.317C63.1661 19.317 63.9039 19.505 64.5318 19.881C65.1596 20.257 65.6462 20.7897 65.9916 21.479C66.3369 22.1683 66.5096 22.983 66.5096 23.923C66.5096 24.1423 66.4468 24.4243 66.3212 24.769C66.227 25.0823 66.1015 25.3487 65.9445 25.568L67.6397 23.406H54.266V27.354H74.0441C74.1069 27.1347 74.1383 26.8683 74.1383 26.555C74.1383 26.2103 74.1383 25.8657 74.1383 25.521C74.1383 23.2023 73.683 21.2283 72.7726 19.599C71.8622 17.9697 70.5437 16.732 68.817 15.886C67.0904 15.0087 64.9713 14.57 62.4598 14.57C59.9483 14.57 57.7664 15.0243 55.9142 15.933C54.0934 16.8417 52.6963 18.142 51.7231 19.834C50.7499 21.526 50.2633 23.5313 50.2633 25.85C50.2633 28.1373 50.7656 30.127 51.7702 31.819C52.7748 33.511 54.1875 34.827 56.0084 35.767C57.8606 36.6757 60.0425 37.13 62.554 37.13Z" fill="black"/>
<path d="M95.5759 24.769H104.335C104.052 25.615 103.66 26.414 103.157 27.166C102.687 27.8867 102.106 28.529 101.415 29.093C100.724 29.6257 99.8925 30.0487 98.9193 30.362C97.9461 30.644 96.863 30.785 95.6701 30.785C93.7236 30.785 91.997 30.362 90.4901 29.516C89.0146 28.6387 87.8373 27.4167 86.9583 25.85C86.1107 24.252 85.6869 22.372 85.6869 20.21C85.6869 18.0167 86.1264 16.168 87.0054 14.664C87.9158 13.1287 89.1245 11.9537 90.6314 11.139C92.1383 10.3243 93.8178 9.917 95.6701 9.917C97.5851 9.917 99.1705 10.3557 100.426 11.233C101.713 12.079 102.734 13.16 103.487 14.476L110.551 10.81C109.515 9.27467 108.275 7.92733 106.831 6.768C105.418 5.57733 103.785 4.653 101.933 3.995C100.081 3.337 97.9932 3.008 95.6701 3.008C93.0644 3.008 90.6471 3.41533 88.4181 4.23C86.1891 5.04467 84.2427 6.204 82.5789 7.708C80.915 9.212 79.6279 11.0293 78.7174 13.16C77.807 15.2593 77.3518 17.6093 77.3518 20.21C77.3518 22.8107 77.7913 25.192 78.6704 27.354C79.5808 29.4847 80.8365 31.3333 82.4376 32.9C84.0387 34.4353 85.938 35.626 88.1356 36.472C90.3331 37.2867 92.7504 37.694 95.3875 37.694C98.1815 37.694 100.662 37.2083 102.828 36.237C104.994 35.2343 106.799 33.8557 108.243 32.101C109.687 30.3463 110.755 28.3253 111.445 26.038C112.136 23.7507 112.403 21.291 112.246 18.659H95.5759V24.769Z" fill="#FED29C"/>
<path d="M116.882 0V36.66H124.04V0H116.882Z" fill="#FED29C"/>
<path d="M135.084 29.892C135.084 29.3593 135.21 28.9207 135.461 28.576C135.712 28.2 136.089 27.918 136.591 27.73C137.093 27.542 137.768 27.448 138.616 27.448C139.715 27.448 140.751 27.6047 141.724 27.918C142.729 28.2 143.608 28.623 144.361 29.187V26.038C143.984 25.6307 143.419 25.239 142.666 24.863C141.912 24.487 141.002 24.1737 139.934 23.923C138.898 23.6723 137.721 23.547 136.403 23.547C133.703 23.547 131.615 24.158 130.14 25.38C128.664 26.5707 127.926 28.2 127.926 30.268C127.926 31.7407 128.272 32.994 128.962 34.028C129.684 35.062 130.626 35.8453 131.788 36.378C132.981 36.8793 134.268 37.13 135.649 37.13C137.031 37.13 138.318 36.895 139.511 36.425C140.704 35.9237 141.677 35.203 142.43 34.263C143.184 33.2917 143.56 32.1167 143.56 30.738L142.807 27.918C142.807 28.9207 142.587 29.7667 142.148 30.456C141.708 31.1453 141.143 31.6623 140.452 32.007C139.762 32.3517 139.008 32.524 138.192 32.524C137.627 32.524 137.109 32.43 136.638 32.242C136.167 32.0227 135.791 31.725 135.508 31.349C135.225 30.9417 135.084 30.456 135.084 29.892ZM131.929 21.667C132.243 21.479 132.745 21.244 133.436 20.962C134.127 20.6487 134.927 20.3823 135.838 20.163C136.779 19.9437 137.737 19.834 138.71 19.834C139.369 19.834 139.95 19.8967 140.452 20.022C140.986 20.1473 141.426 20.351 141.771 20.633C142.116 20.915 142.368 21.2597 142.524 21.667C142.713 22.043 142.807 22.4973 142.807 23.03V36.66H149.635V21.432C149.635 19.928 149.196 18.659 148.317 17.625C147.438 16.591 146.245 15.8077 144.738 15.275C143.231 14.711 141.52 14.429 139.605 14.429C137.564 14.429 135.681 14.6953 133.954 15.228C132.227 15.7607 130.752 16.3247 129.527 16.92L131.929 21.667Z" fill="#FED29C"/>
<path d="M156.137 28.811L153.17 33.511C154.143 34.263 155.195 34.9523 156.325 35.579C157.455 36.1743 158.679 36.6443 159.998 36.989C161.348 37.365 162.792 37.553 164.33 37.553C166.936 37.553 168.945 36.9733 170.358 35.814C171.802 34.6233 172.524 32.8687 172.524 30.55C172.524 29.2027 172.226 28.1217 171.629 27.307C171.064 26.4923 170.295 25.8187 169.322 25.286C168.38 24.7533 167.344 24.2833 166.214 23.876C165.147 23.4687 164.236 23.1397 163.483 22.889C162.761 22.607 162.196 22.3093 161.787 21.996C161.411 21.6827 161.222 21.291 161.222 20.821C161.222 20.4137 161.379 20.0847 161.693 19.834C162.039 19.5833 162.541 19.458 163.2 19.458C164.173 19.458 165.241 19.74 166.402 20.304C167.564 20.8367 168.6 21.526 169.51 22.372L172.053 17.766C171.206 17.1393 170.295 16.591 169.322 16.121C168.38 15.651 167.36 15.275 166.261 14.993C165.194 14.711 164.032 14.57 162.776 14.57C161.207 14.57 159.81 14.805 158.585 15.275C157.392 15.745 156.435 16.4343 155.713 17.343C155.022 18.2517 154.677 19.364 154.677 20.68C154.677 22.0587 154.975 23.1867 155.572 24.064C156.168 24.9413 156.921 25.6463 157.832 26.179C158.774 26.6803 159.763 27.119 160.799 27.495C161.96 27.8397 162.871 28.1687 163.53 28.482C164.22 28.7953 164.707 29.1243 164.99 29.469C165.272 29.7823 165.413 30.174 165.413 30.644C165.413 31.1453 165.241 31.5527 164.895 31.866C164.55 32.1793 164.016 32.336 163.294 32.336C162.792 32.336 162.196 32.242 161.505 32.054C160.814 31.8347 160.014 31.4743 159.103 30.973C158.224 30.4403 157.235 29.7197 156.137 28.811Z" fill="#FED29C"/>
<path d="M177.612 28.811L174.646 33.511C175.619 34.263 176.671 34.9523 177.801 35.579C178.931 36.1743 180.155 36.6443 181.474 36.989C182.824 37.365 184.268 37.553 185.806 37.553C188.412 37.553 190.421 36.9733 191.834 35.814C193.278 34.6233 194 32.8687 194 30.55C194 29.2027 193.702 28.1217 193.105 27.307C192.54 26.4923 191.771 25.8187 190.798 25.286C189.856 24.7533 188.82 24.2833 187.69 23.876C186.622 23.4687 185.712 23.1397 184.959 22.889C184.237 22.607 183.671 22.3093 183.263 21.996C182.887 21.6827 182.698 21.291 182.698 20.821C182.698 20.4137 182.855 20.0847 183.169 19.834C183.514 19.5833 184.017 19.458 184.676 19.458C185.649 19.458 186.717 19.74 187.878 20.304C189.04 20.8367 190.076 21.526 190.986 22.372L193.529 17.766C192.681 17.1393 191.771 16.591 190.798 16.121C189.856 15.651 188.836 15.275 187.737 14.993C186.67 14.711 185.508 14.57 184.252 14.57C182.683 14.57 181.286 14.805 180.061 15.275C178.868 15.745 177.911 16.4343 177.189 17.343C176.498 18.2517 176.153 19.364 176.153 20.68C176.153 22.0587 176.451 23.1867 177.047 24.064C177.644 24.9413 178.397 25.6463 179.308 26.179C180.25 26.6803 181.238 27.119 182.274 27.495C183.436 27.8397 184.346 28.1687 185.006 28.482C185.696 28.7953 186.183 29.1243 186.465 29.469C186.748 29.7823 186.889 30.174 186.889 30.644C186.889 31.1453 186.717 31.5527 186.371 31.866C186.026 32.1793 185.492 32.336 184.77 32.336C184.268 32.336 183.671 32.242 182.981 32.054C182.29 31.8347 181.49 31.4743 180.579 30.973C179.7 30.4403 178.711 29.7197 177.612 28.811Z" fill="#FED29C"/>
</svg>
