<svg width="20" height="18" viewBox="0 0 20 18" fill="none" xmlns="http://www.w3.org/2000/svg">
<path d="M0 0.84375C0 0.376172 0.371528 0 0.833333 0H2.41319C3.17708 0 3.85417 0.45 4.17014 1.125H18.441C19.3542 1.125 20.0208 2.00391 19.7812 2.89688L18.3576 8.25117C18.0625 9.35508 17.0729 10.125 15.9444 10.125H5.92708L6.11458 11.127C6.19097 11.5242 6.53472 11.8125 6.93403 11.8125H16.9444C17.4062 11.8125 17.7778 12.1887 17.7778 12.6562C17.7778 13.1238 17.4062 13.5 16.9444 13.5H6.93403C5.73264 13.5 4.70139 12.6352 4.47917 11.4434L2.6875 1.91602C2.66319 1.78242 2.54861 1.6875 2.41319 1.6875H0.833333C0.371528 1.6875 0 1.31133 0 0.84375ZM4.44444 16.3125C4.44444 16.0909 4.48755 15.8715 4.57131 15.6667C4.65507 15.462 4.77783 15.276 4.9326 15.1193C5.08736 14.9626 5.2711 14.8383 5.47331 14.7535C5.67551 14.6686 5.89224 14.625 6.11111 14.625C6.32998 14.625 6.54671 14.6686 6.74892 14.7535C6.95113 14.8383 7.13486 14.9626 7.28962 15.1193C7.44439 15.276 7.56715 15.462 7.65091 15.6667C7.73467 15.8715 7.77778 16.0909 7.77778 16.3125C7.77778 16.5341 7.73467 16.7535 7.65091 16.9583C7.56715 17.163 7.44439 17.349 7.28962 17.5057C7.13486 17.6624 6.95113 17.7867 6.74892 17.8715C6.54671 17.9564 6.32998 18 6.11111 18C5.89224 18 5.67551 17.9564 5.47331 17.8715C5.2711 17.7867 5.08736 17.6624 4.9326 17.5057C4.77783 17.349 4.65507 17.163 4.57131 16.9583C4.48755 16.7535 4.44444 16.5341 4.44444 16.3125ZM16.1111 14.625C16.5531 14.625 16.9771 14.8028 17.2896 15.1193C17.6022 15.4357 17.7778 15.8649 17.7778 16.3125C17.7778 16.7601 17.6022 17.1893 17.2896 17.5057C16.9771 17.8222 16.5531 18 16.1111 18C15.6691 18 15.2452 17.8222 14.9326 17.5057C14.62 17.1893 14.4444 16.7601 14.4444 16.3125C14.4444 15.8649 14.62 15.4357 14.9326 15.1193C15.2452 14.8028 15.6691 14.625 16.1111 14.625Z" fill="#383838"/>
</svg>
