<svg width="40" height="21" viewBox="0 0 40 21" fill="none" xmlns="http://www.w3.org/2000/svg">
<path d="M3.99682 10.8285C5.4683 10.6948 6.88418 10.5165 8.31303 10.4466C11.4389 10.2723 14.5771 10.6727 17.3698 11.602C18.5448 11.9984 19.6122 12.2478 20.891 12.1731C21.1004 12.1764 21.3082 12.1488 21.4988 12.0923C25.0682 10.5346 29.023 10.2285 33.1743 10.5623C34.1009 10.6382 35.0275 10.7586 36.1098 10.8731C35.7577 9.88397 35.4371 8.97435 35.1091 8.06474C34.6161 6.69851 34.1139 5.3347 33.6265 3.96847C33.2225 2.83356 32.3032 2.5167 30.6483 2.93115C29.9635 3.11045 29.263 3.26332 28.5504 3.38897C27.7721 3.51788 27.2217 3.26849 26.927 2.80946C26.6323 2.35044 26.6694 1.87214 27.3588 1.63239C28.9822 1.06975 30.6131 0.460131 32.5942 0.698678C34.6884 0.950478 36.0672 1.73479 36.5713 3.06729C37.698 6.04552 38.9638 9.0117 39.7477 12.0297C40.1758 13.6778 40.0109 15.4477 39.6124 17.1127C39.138 19.1042 36.0765 20.6692 32.8296 20.762C30.8169 20.8186 28.7154 20.8041 26.7787 20.4921C23.5652 19.9753 21.712 18.1837 21.4303 15.8055C21.4043 15.5862 21.3895 15.3669 21.3654 15.0971H18.693C18.6078 15.5959 18.5522 16.091 18.4336 16.579C18.175 17.7001 17.331 18.7293 16.0433 19.4938C14.7556 20.2584 13.1025 20.7116 11.3616 20.7776C9.73079 20.8558 8.09194 20.8247 6.4709 20.6849C2.70326 20.3102 0.269953 18.2753 0.0420039 15.8127C-0.226716 12.9092 0.842603 10.1623 1.86189 7.39488C2.36411 6.02986 2.84596 4.66242 3.34448 3.29861C4.11914 1.16854 7.10471 0.12761 10.246 0.898673C10.9372 1.06855 11.6211 1.26011 12.2845 1.46733C13.1129 1.73118 13.4335 2.20828 13.1722 2.70103C12.8942 3.22512 12.2567 3.49137 11.3468 3.36608C10.662 3.25052 9.99214 3.10026 9.34343 2.91669C7.77373 2.52393 6.8397 2.81669 6.44681 3.87449C5.61656 6.1154 4.81225 8.36112 4.00053 10.6044C3.98654 10.6788 3.98529 10.754 3.99682 10.8285ZM11.7082 13.479C11.4654 13.3586 11.4209 13.3212 11.3672 13.3152C9.13926 13.095 6.86176 13.2489 4.75109 13.7622C4.65852 13.7889 4.57681 13.8292 4.51246 13.88C4.44812 13.9309 4.40291 13.9907 4.38045 14.0549C4.34338 14.6031 4.36376 15.1525 4.36376 15.8621L11.7082 13.479ZM32.7851 13.479C32.5738 13.3658 32.5108 13.3044 32.4367 13.2971C30.2603 13.1057 28.0448 13.2616 25.9818 13.7513C25.893 13.7802 25.8162 13.8225 25.7578 13.8747C25.6994 13.9269 25.6612 13.9875 25.6464 14.0513C25.6649 14.579 25.7391 15.1067 25.8058 15.7513L32.7851 13.479Z" fill="#545454"/>
</svg>
