<svg width="30" height="27" viewBox="0 0 30 27" fill="none" xmlns="http://www.w3.org/2000/svg">
<path d="M14.2969 2.92174L14.9473 3.62487L15.6504 2.92292C17.6133 1.00983 20.332 0.139127 23.0039 0.583854C27.041 1.25651 30 4.74987 30 8.84557V9.18542C30 11.6171 28.9922 13.9432 27.2109 15.6014L16.623 25.4862C16.1836 25.8964 15.6035 26.1249 15 26.1249C14.3965 26.1249 13.8164 25.8964 13.377 25.4862L2.78848 15.6014C1.00957 13.9432 0 11.6171 0 9.18542V8.84557C0 4.74987 2.96016 1.25651 6.99609 0.583854C9.61523 0.139127 12.3867 1.00983 14.2969 2.92174C14.2969 2.92233 14.2441 2.92174 14.2969 2.92174ZM14.9473 7.60338L12.3105 4.8612C11.0391 3.64128 9.23438 3.06237 7.45898 3.35768C4.77832 3.80475 2.8125 6.12682 2.8125 8.84557V9.18542C2.8125 10.8378 3.49863 12.4198 4.70742 13.5448L15 23.1542L25.2949 13.5448C26.502 12.4198 27.1875 10.8378 27.1875 9.18542V8.84557C27.1875 6.12682 25.2188 3.80475 22.541 3.35768C20.7656 3.06237 18.9609 3.64128 17.6895 4.8612L14.9473 7.60338Z" fill="#545454"/>
</svg>
