<svg width="18" height="22" viewBox="0 0 18 22" fill="none" xmlns="http://www.w3.org/2000/svg">
<path d="M9.00087 11C10.2975 11 11.541 10.4635 12.4578 9.50842C13.3747 8.55337 13.8898 7.25805 13.8898 5.90741C13.8898 4.55677 13.3747 3.26145 12.4578 2.30641C11.541 1.35136 10.2975 0.814819 9.00087 0.814819C7.70425 0.814819 6.46075 1.35136 5.5439 2.30641C4.62706 3.26145 4.11198 4.55677 4.11198 5.90741C4.11198 7.25805 4.62706 8.55337 5.5439 9.50842C6.46075 10.4635 7.70425 11 9.00087 11ZM7.25538 12.9097C3.49323 12.9097 0.445312 16.0846 0.445312 20.0035C0.445312 20.656 0.953299 21.1852 1.57969 21.1852H16.422C17.0484 21.1852 17.5564 20.656 17.5564 20.0035C17.5564 16.0846 14.5085 12.9097 10.7464 12.9097H7.25538Z" fill="#383838"/>
</svg>
