<svg width="18" height="16" viewBox="0 0 18 16" fill="none" xmlns="http://www.w3.org/2000/svg">
<path d="M0.818359 1.32669C0.818359 0.94413 1.12234 0.636353 1.50018 0.636353H2.79279C3.41779 0.636353 3.97177 1.00453 4.23029 1.55681H15.9064C16.6536 1.55681 17.199 2.27591 17.003 3.00652L15.8382 7.38731C15.5968 8.29051 14.7871 8.92044 13.8638 8.92044H5.66779L5.8212 9.74022C5.8837 10.0653 6.16495 10.3011 6.49165 10.3011H14.682C15.0598 10.3011 15.3638 10.6089 15.3638 10.9915C15.3638 11.374 15.0598 11.6818 14.682 11.6818H6.49165C5.5087 11.6818 4.66495 10.9742 4.48313 9.9991L3.01722 2.204C2.99734 2.0947 2.90359 2.01703 2.79279 2.01703H1.50018C1.12234 2.01703 0.818359 1.70926 0.818359 1.32669ZM4.45472 13.9829C4.45472 13.8016 4.48999 13.6221 4.55852 13.4546C4.62705 13.2871 4.7275 13.1349 4.85412 13.0067C4.98075 12.8784 5.13107 12.7767 5.29652 12.7074C5.46196 12.638 5.63928 12.6023 5.81836 12.6023C5.99743 12.6023 6.17476 12.638 6.3402 12.7074C6.50564 12.7767 6.65597 12.8784 6.7826 13.0067C6.90922 13.1349 7.00967 13.2871 7.0782 13.4546C7.14672 13.6221 7.182 13.8016 7.182 13.9829C7.182 14.1643 7.14672 14.3438 7.0782 14.5113C7.00967 14.6788 6.90922 14.831 6.7826 14.9592C6.65597 15.0874 6.50564 15.1891 6.3402 15.2585C6.17476 15.3279 5.99743 15.3636 5.81836 15.3636C5.63928 15.3636 5.46196 15.3279 5.29652 15.2585C5.13107 15.1891 4.98075 15.0874 4.85412 14.9592C4.7275 14.831 4.62705 14.6788 4.55852 14.5113C4.48999 14.3438 4.45472 14.1643 4.45472 13.9829ZM14.0002 12.6023C14.3618 12.6023 14.7087 12.7477 14.9644 13.0067C15.2201 13.2656 15.3638 13.6168 15.3638 13.9829C15.3638 14.3491 15.2201 14.7003 14.9644 14.9592C14.7087 15.2182 14.3618 15.3636 14.0002 15.3636C13.6385 15.3636 13.2917 15.2182 13.0359 14.9592C12.7802 14.7003 12.6365 14.3491 12.6365 13.9829C12.6365 13.6168 12.7802 13.2656 13.0359 13.0067C13.2917 12.7477 13.6385 12.6023 14.0002 12.6023Z" fill="white"/>
</svg>
